HIERARCHY
ROOT root
{
	OFFSET 0.000000 0.000000 0.000000
	CHANNELS 6 Xposition Yposition Zposition Zrotation Yrotation Xrotation
	JOINT lhip
	{
		OFFSET 0.058581 -0.082280 -0.017664
		CHANNELS 3 Zrotation Yrotation Xrotation
		JOINT lknee
		{
			OFFSET 0.043451 -0.386469 0.008037
			CHANNELS 3 Zrotation Yrotation Xrotation
			JOINT lankle
			{
				OFFSET -0.014790 -0.426874 -0.037428
				CHANNELS 3 Zrotation Yrotation Xrotation
				JOINT ltoe
				{
					OFFSET 0.041054 -0.060286 0.122042
					CHANNELS 3 Zrotation Yrotation Xrotation
					End Site
					{
						OFFSET 0.000000 0.000000 0.000000
					}
				}
			}
		}
	}
	JOINT rhip
	{
		OFFSET -0.060310 -0.090513 -0.013543
		CHANNELS 3 Zrotation Yrotation Xrotation
		JOINT rknee
		{
			OFFSET -0.043257 -0.383688 -0.004843
			CHANNELS 3 Zrotation Yrotation Xrotation
			JOINT rankle
			{
				OFFSET 0.019056 -0.420046 -0.034562
				CHANNELS 3 Zrotation Yrotation Xrotation
				JOINT rtoe
				{
					OFFSET -0.034840 -0.062106 0.130323
					CHANNELS 3 Zrotation Yrotation Xrotation
					End Site
					{
						OFFSET 0.000000 0.000000 0.000000
					}
				}
			}
		}
	}
	JOINT lowerback
	{
		OFFSET 0.004439 0.124404 -0.038385
		CHANNELS 3 Zrotation Yrotation Xrotation
		JOINT upperback
		{
			OFFSET 0.004488 0.137956 0.026820
			CHANNELS 3 Zrotation Yrotation Xrotation
			JOINT chest
			{
				OFFSET -0.002265 0.056032 0.002855
				CHANNELS 3 Zrotation Yrotation Xrotation
				JOINT lowerneck
				{
					OFFSET -0.013390 0.211636 -0.033468
					CHANNELS 3 Zrotation Yrotation Xrotation
					JOINT upperneck
					{
						OFFSET 0.010113 0.088937 0.050410
						CHANNELS 3 Zrotation Yrotation Xrotation
						End Site
						{
							OFFSET 0.000000 0.000000 0.000000
						}
					}
				}
				JOINT lclavicle
				{
					OFFSET 0.071702 0.114000 -0.018898
					CHANNELS 3 Zrotation Yrotation Xrotation
					JOINT lshoulder
					{
						OFFSET 0.122921 0.045205 -0.019046
						CHANNELS 3 Zrotation Yrotation Xrotation
						JOINT lelbow
						{
							OFFSET 0.255332 -0.015649 -0.022946
							CHANNELS 3 Zrotation Yrotation Xrotation
							JOINT lwrist
							{
								OFFSET 0.265709 0.012698 -0.007375
								CHANNELS 3 Zrotation Yrotation Xrotation
								End Site
								{
									OFFSET 0.000000 0.000000 0.000000
								}
							}
						}
					}
				}
				JOINT rclavicle
				{
					OFFSET -0.082954 0.112472 -0.023707
					CHANNELS 3 Zrotation Yrotation Xrotation
					JOINT rshoulder
					{
						OFFSET -0.113228 0.046853 -0.008472
						CHANNELS 3 Zrotation Yrotation Xrotation
						JOINT relbow
						{
							OFFSET -0.260127 -0.014369 -0.031269
							CHANNELS 3 Zrotation Yrotation Xrotation
							JOINT rwrist
							{
								OFFSET -0.269108 0.006794 -0.006027
								CHANNELS 3 Zrotation Yrotation Xrotation
								End Site
								{
									OFFSET 0.000000 0.000000 0.000000
								}
							}
						}
					}
				}
			}
		}
	}
}
MOTION
Frames: 7
Frame Time: 0.033333
0.215891 0.534219 0.875033 -47.951332 5.825552 95.318602 17.545054 20.501490 -50.851803 -11.935440 25.482414 71.658721 -8.339714 -4.312466 -11.681713 0.000000 -0.000000 0.000000 -11.264646 -19.952784 -39.094420 -0.240719 -25.889380 74.477561 2.302558 1.852176 -14.785516 0.000000 -0.000000 0.000000 -1.992636 7.334290 43.725403 3.118061 -0.912715 1.667904 5.204549 0.839328 -1.291986 -2.252960 12.989083 -7.154517 6.497179 4.960184 -14.090337 -15.728885 -6.089047 -4.794672 -18.371401 -5.483861 -12.500404 78.467782 -51.194673 -65.301533 30.126779 -8.256158 -15.967928 25.786404 7.011167 3.606751 34.258202 4.126831 -13.017444 -19.257766 24.581292 -37.824107 -14.140853 6.713563 -26.783185 
0.178891 0.576986 0.856592 -49.676853 8.395869 94.868329 17.359708 18.797719 -50.649981 -16.104631 21.362732 68.062573 -8.965093 -7.401866 -4.269358 0.000000 -0.000000 0.000000 -14.965394 -18.540735 -37.408277 -1.005327 -21.934479 68.711156 -1.026772 -2.674245 -16.971406 0.000000 -0.000000 0.000000 -0.720904 7.259984 44.570406 3.617506 -0.247503 1.932572 5.561381 0.952510 -1.537943 -2.224650 13.540341 -9.665350 5.773262 5.585971 -13.399352 -16.875526 -5.616604 -4.413278 -19.610838 -6.631299 -12.218866 80.581483 -50.136206 -65.699503 31.528038 -7.575690 -16.881672 26.696913 7.647382 3.801397 34.880870 5.532501 -13.111141 -19.841009 19.838947 -40.276604 -12.490525 6.120461 -26.869303 
0.142354 0.617166 0.830452 -51.928946 10.495942 94.264480 17.481351 18.187702 -48.934760 -11.351280 19.049902 67.669867 4.679454 4.685121 -24.350179 0.000000 -0.000000 0.000000 -18.447648 -19.142766 -36.458767 -0.358463 -16.653372 61.263618 -1.165766 -8.705703 -17.089631 0.000000 -0.000000 0.000000 -0.049663 7.187451 45.521196 3.600615 0.766361 -0.052740 6.579616 0.914120 0.041889 -2.239280 11.899913 -12.776285 4.791012 9.349388 -11.420371 -18.462010 -5.160832 -2.935502 -21.214078 -8.862430 -14.710790 82.438124 -51.532311 -65.807628 36.327603 -5.287082 -18.618049 27.500937 7.713410 5.387225 35.592607 6.655624 -13.352370 -21.563486 18.733540 -43.645593 -13.424119 5.614985 -26.344472 
0.106321 0.661934 0.804957 -53.362075 11.006068 93.706061 21.408245 17.405548 -49.598180 -9.062860 16.592120 70.051167 4.584329 7.362772 -30.164986 0.000000 -0.000000 0.000000 -22.889022 -20.961949 -35.330077 -1.575486 -14.189464 54.143421 0.238593 -10.364570 -15.022638 0.000000 -0.000000 0.000000 -0.027801 7.840966 46.259008 4.120433 0.489652 0.763194 7.308844 0.158999 0.042941 -2.643979 12.518557 -16.536740 4.318519 11.637242 -11.468368 -19.958781 -5.912334 -1.169112 -22.520743 -10.762048 -15.903358 83.766459 -50.327981 -66.083817 39.235825 -4.273949 -19.844319 29.945892 8.227289 5.606973 34.840791 7.320239 -12.366098 -23.954361 19.206431 -45.459414 -13.305642 5.566852 -26.897461 
0.066058 0.709028 0.788363 -54.708408 8.924654 91.463098 25.581892 18.679053 -47.601573 -9.166496 15.853309 71.939076 1.290737 4.887799 -28.600839 0.000000 -0.000000 0.000000 -28.282661 -23.955144 -32.963622 -1.776116 -13.038080 49.319493 1.567931 -8.901321 -15.961224 0.000000 -0.000000 0.000000 -0.812275 9.396535 47.617868 4.374639 -0.848177 3.473355 7.405308 -0.230091 -0.659138 -4.162645 15.928843 -19.254079 3.784374 11.071330 -11.079031 -19.502810 -7.007582 -0.991165 -24.691351 -14.145243 -15.766656 79.587151 -51.046288 -62.964948 39.740262 -2.544225 -22.353433 31.166246 8.248927 6.075416 35.741578 8.530794 -11.425683 -25.279194 20.183734 -44.960368 -13.345167 5.505267 -25.232085 
0.025194 0.757952 0.778269 -55.675611 7.028470 90.910071 28.498374 20.207615 -45.127877 -9.462390 14.062650 69.707223 -0.052934 3.723490 -26.820413 0.000000 -0.000000 0.000000 -30.729896 -26.870482 -32.241892 -2.083726 -15.709974 48.757107 1.574972 -9.333724 -15.752310 0.000000 -0.000000 0.000000 -0.835748 7.883606 46.649371 3.377117 -1.206970 3.036158 6.443032 -0.736654 -0.138925 -6.753185 16.957511 -17.687508 2.895489 12.912794 -9.239791 -19.885653 -6.684035 -0.615775 -27.012030 -16.131620 -14.511644 74.458893 -53.957281 -60.307502 37.730453 0.509067 -26.896760 30.702971 7.243163 6.479704 37.730721 8.844683 -10.060033 -24.326118 21.707988 -42.844724 -13.410255 6.157594 -22.687548 
-0.019439 0.813857 0.781123 -56.609785 4.825847 90.463676 30.998720 19.574307 -41.605176 -8.886441 11.053750 65.325026 -4.029044 2.906825 -21.802070 0.000000 -0.000000 0.000000 -30.091155 -29.358465 -33.721524 -3.624130 -17.042930 54.638899 6.603757 -6.972878 -6.644268 0.000000 -0.000000 0.000000 -1.862282 6.174736 45.056231 1.841186 -1.528348 2.870592 5.247972 -1.291368 -0.096594 -8.903798 18.266107 -14.286844 1.390367 16.355889 -8.291537 -20.751246 -6.254695 -0.315107 -26.855215 -14.725131 -12.886144 73.057373 -55.372406 -60.399755 37.361978 0.982230 -27.700452 30.739303 7.129009 6.226323 38.662131 8.054817 -7.898510 -20.907579 22.595765 -40.532385 -15.209097 6.913385 -19.737874 
